<svg xmlns="http://www.w3.org/2000/svg" viewBox="103.0 198.0 62.0 62.0" style="color:#f6f3ee">
<rect x="103.0" y="198.0" width="62.0" height="62.0" fill="#1c1d1d"/>
<g>
	<g>
		<path fill="currentColor" d="M174.8,289.1h-2v-0.2h4.2v0.2h-2v5h-0.3V289.1z"/>
		<path fill="currentColor" d="M185.6,294.1l-1.9-2.5h-1.4v2.5h-0.3v-5.3h1.8c1,0,1.5,0.6,1.5,1.4c0,0.7-0.5,1.3-1.3,1.4l1.9,2.5H185.6z
			 M182.3,291.4h1.5c0.8,0,1.3-0.5,1.3-1.2s-0.4-1.2-1.3-1.2h-1.5V291.4z"/>
		<path fill="currentColor" d="M190.9,288.8h3.2v0.2h-3v2.1h2.4v0.2h-2.4v2.5h3.1v0.2h-3.3V288.8z"/>
		<path fill="currentColor" d="M202.7,292.7h-2.9l-0.6,1.4h-0.3l2.2-5.4h0.1l2.2,5.4h-0.3L202.7,292.7z M199.9,292.5h2.7l-1.4-3.3
			L199.9,292.5z"/>
		<path fill="currentColor" d="M209.5,289.1h-2v-0.2h4.2v0.2h-2v5h-0.3V289.1z"/>
		<path fill="currentColor" d="M221.4,288.8v5.4h-0.3v-4.7l-2,2.9h-0.1l-2-2.9v4.7h-0.3v-5.4h0.1l2.2,3.2l2.2-3.2H221.4z"/>
		<path fill="currentColor" d="M227.1,288.8h3.2v0.2h-3v2.1h2.4v0.2h-2.4v2.5h3.1v0.2h-3.3V288.8z"/>
		<path fill="currentColor" d="M239.5,288.8v5.4h-0.1l-3.6-4.8v4.7h-0.3v-5.4h0.1l3.6,4.8v-4.8H239.5z"/>
		<path fill="currentColor" d="M246.6,289.1h-2v-0.2h4.2v0.2h-2v5h-0.3V289.1z"/>
	</g>
</g>
<g>
	<g>
		<g>
			<path fill="currentColor" d="M143.9,232.6c0,0-0.9,0,0.5-0.1c4.4,0,8,0.6,12.1,2.4l0.3,0.1c1.6,0.7,3.2,1.5,4.9,2.1
				c1.7,0.6,3.5,1.1,5.3,1.6c3.3,0.8,6.7,1.5,10.2,1.6c3.4,0.2,6.9-0.1,10.2-0.7c-0.2,0-0.3,0,0.4-0.1c2.8-0.5,6.6-1.4,10.4-2.8
				c0.6-0.2,1.1-0.4,1.7-0.7c0.4-0.2,0.5-0.2,0.6-0.3c1.7-0.8,3.1-1.6,4.4-2.3c4.3-2.5,8.4-5.4,13.1-6.9c4.7-1.4,9.8-1.7,14.8-0.8
				c5,0.9,9.8,2.9,14.4,5.4c4.6,2.4,9.2,5.3,14.6,6.7l1.7,0.4c0.6,0.1,1.2,0.1,1.7,0.2c0.6,0,1.2,0.1,1.7,0c0.6,0,1.2,0,1.7-0.1
				c2.3-0.2,4.5-0.8,6.6-1.6c1.6-0.5,3.2-1.1,5-1.5c1.7-0.4,3.6-0.7,5.4-0.7c1.8-0.1,3.7,0.1,5.5,0.3c1.8,0.2,3.5,0.5,5,0.8
				c-0.9-0.4,14.3,3,11.3,2.2c2.1,0.4,4.7,0.9,6.9,0.8c2.2-0.1,3.6-1.2,3.7-1.3c0.2-0.1,0.5-0.4,1.1-0.7c0.6-0.3,1.4-0.7,2.6-1
				c2.4-0.5,6.2-0.5,11.7,0.9c2.2,0.6,4.8,1.5,7.2,2.3c1.2,0.4,2.2,0.8,3.1,1c0.9,0.3,1.6,0.3,1.7,0.2c0.6-0.3,0.5-0.3,0.1-0.1
				c0,0-0.1,0-0.1,0.1c0,0-0.1,0-0.1,0c-0.1,0-0.2,0-0.3,0c-0.3,0-0.6-0.1-0.9-0.2c-1.3-0.4-2.7-0.9-1.5-0.5
				c-3.9-1.3-7.8-2.8-11.8-3.6c-2-0.4-4.1-0.7-6.2-0.7c-1,0-2.1,0.1-3.1,0.3c-1,0.2-2.1,0.6-3,1.2c-0.9,0.6-1.7,1.1-2.6,1.3
				c-0.9,0.2-1.9,0.3-2.9,0.2c-2-0.1-3.9-0.5-5.9-0.9c-3.9-0.8-7.9-1.9-11.9-2.6c-4-0.7-8.1-1.2-12.3-0.6c-2.1,0.3-4.1,0.8-6,1.4
				c-1.9,0.6-3.8,1.3-5.8,1.7c-3.9,0.9-8,0.5-11.8-0.9c-3.8-1.4-7.3-3.6-11-5.5c-0.6-0.3-1.5-0.8-2.5-1.3c-0.5-0.3-1.1-0.6-1.7-0.9
				c-0.6-0.3-1.3-0.6-2.1-0.9c-3-1.3-6.8-2.6-11.4-3.1c-0.6-0.1-1.2-0.1-1.7-0.2c-0.6-0.1-1.2,0-1.8,0c-0.6,0-1.2,0-1.8,0
				c-0.6,0-1.2,0.1-1.9,0.2c-1.3,0.2-2.5,0.3-3.8,0.6c-0.6,0.2-1.3,0.4-1.9,0.6c-0.6,0.2-1.3,0.4-1.9,0.7c-5.1,2.1-9.6,5.6-14.7,8.1
				c-1.3,0.6-2.6,1.2-3.9,1.6c-1.4,0.4-2.7,0.9-4.1,1.2c-2.7,0.8-5.5,1.3-8.3,1.6c-5.5,0.7-11,0.2-15.8-1c-2.4-0.6-4.8-1.3-6.9-2
				c-2.1-0.7-4-1.8-5.9-2.5c-3.8-1.5-7.2-1.9-9.7-2c-0.6,0-1.2,0-1.8,0c-2.7,0-5.6,0.6-8.3,1.9c-2.6,1.2-5.1,2.8-7.7,3.8
				c-2.6,1-5.3,1.7-7.9,2c-2.6,0.3-5.1,0.3-7.3,0.1c-2-0.2-4.1-0.5-6.2-0.8c-2.1-0.3-4.1-0.7-6.2-1.1c1.9,0.4,3.7,0.8,5.2,1.1
				c-2.1-0.4-4.2-0.8-6-1.2c-1.8-0.4-3.2-0.7-4-0.8c-4.5-0.7-5.5-0.5-4.9-0.5c0.6,0,2.7,0.3,4.5,0.6c2.5,0.5-0.9-0.1,3,0.7
				c-2.8-0.6-4.2-0.8-7-1c-0.2,0,2,0.2,4,0.5c2,0.3,3.7,0.7,2.7,0.5c-2.7-0.6-5.7-1-8.6-1.1c0.5,0,2.9,0.1,5.2,0.5
				c2.3,0.3,4.3,0.8,4.1,0.8c-0.8-0.2-2.7-0.6-4.6-0.8c-1.8-0.3-3.6-0.4-3.9-0.4c-0.1,0,2.7,0.2,4.1,0.4c-4.3-0.6-7.7-0.4-9-0.2
				c-0.6,0.1-0.8,0.1-0.2,0.1c0.5,0,1.7-0.2,3.7-0.1c-2.8-0.1-6.6,0.4-9.4,1.3c0,0,0,0,0,0c1.4-0.4,3.8-1,5.2-1.1
				c-1.6,0.2-3.3,0.5-4.8,1c0.3-0.1,0.5-0.1,0.8-0.2c1.2-0.3,2.4-0.6,3.7-0.7c-1.1,0.1-2.2,0.4-3.2,0.6c0.8-0.2,1.7-0.4,2.7-0.5
				c3.9-0.6,7.6-0.2,9.7,0.1c4.2,0.5,8.4,1.7,12.7,2.4c4.2,0.8,8.6,1.4,13,1c4.4-0.3,8.7-1.5,12.6-3.6c1.9-1,3.8-2.1,5.7-2.9
				C139.8,233,141.8,232.6,143.9,232.6z"/>
		</g>
	</g>
</g>
<line fill="none" stroke="currentColor" stroke-width="1.4143" stroke-miterlimit="10" x1="80.6" y1="310.9" x2="201.3" y2="131.6"/>
<g>
	<path fill="currentColor" d="M132.4,275.1h-6.2v-15h5.2c1.3,0,2.3,0.4,3.1,1.1s1.2,1.6,1.2,2.7c0,1.2-0.5,2.2-1.4,3c1.8,0.5,2.9,2,2.9,3.9
		C137.2,273.3,135.3,275.1,132.4,275.1z M128,261.7v4.7h3.2c1.7,0,2.6-0.9,2.6-2.3c0-1.4-0.9-2.3-2.6-2.3H128z M132.2,268H128v5.5
		h4.2c2,0,3.1-1.1,3.1-2.8S134.2,268,132.2,268z"/>
	<path fill="currentColor" d="M151.6,259.9c4.2-0.1,7.9,3.5,7.8,7.7c0.1,4.3-3.6,7.8-7.8,7.7c-4.2,0.1-7.9-3.5-7.8-7.7
		C143.7,263.3,147.3,259.8,151.6,259.9z M151.6,261.5c-3.4,0-6,2.6-6,6.1s2.6,6.1,6,6.1c3.3,0,6-2.7,5.9-6.1
		C157.6,264.2,154.9,261.4,151.6,261.5z"/>
	<path fill="currentColor" d="M167.1,260.1h4.5c5,0,8.2,3.1,8.2,7.5c0,4.3-3.1,7.5-8.2,7.5h-4.5V260.1z M171.5,273.5c4,0,6.3-2.5,6.3-5.9
		c0-3.5-2.4-5.9-6.3-5.9h-2.7v11.8H171.5z"/>
	<path fill="currentColor" d="M192.5,268.9v6.2h-1.8v-6.2l-5.2-8.8h2l4.1,7l4.1-7h2L192.5,268.9z"/>
	<path fill="currentColor" d="M226.2,275.1l-5-6.7h-3.7v6.7h-1.2v-15h5.1c2.8,0,4.5,1.7,4.5,4.1c0,2.1-1.3,3.7-3.4,4.1l5.1,6.8H226.2z
		 M217.5,267.3h3.9c2.2,0,3.4-1.2,3.4-3.1s-1.2-3.1-3.4-3.1h-3.9V267.3z"/>
	<path fill="currentColor" d="M234.8,260.1h9.4v1.1H236v5.3h6.4v1.1H236v6.5h8.5v1.1h-9.7V260.1z"/>
	<path fill="currentColor" d="M251.8,271.5c1.1,1.7,2.5,2.7,4.5,2.7c2,0,3.4-1.1,3.4-2.8c-0.1-1.6-0.8-2.1-2.8-3.1l-1.7-0.8
		c-1.9-0.9-3.2-1.7-3.3-3.9c0-2.3,2-3.7,4.4-3.7c1.9,0,3.5,0.9,4.5,2.4l-0.9,0.7c-0.9-1.3-2.2-2-3.6-2c-0.8,0-1.6,0.2-2.2,0.6
		c-0.6,0.4-0.9,1.1-0.9,1.9c0.1,1.6,0.9,2,2.7,2.9l1.7,0.8c2.3,1.1,3.5,2.1,3.5,4.1c0,2.4-2,4-4.7,4c-2.3,0-4.2-1.2-5.4-3.2
		L251.8,271.5z"/>
	<path fill="currentColor" d="M269.3,260.1h9.4v1.1h-8.2v5.3h6.4v1.1h-6.4v6.5h8.5v1.1h-9.7V260.1z"/>
	<path fill="currentColor" d="M290.4,261.2h-5.5v-1.1h12.2v1.1h-5.5v13.9h-1.2V261.2z"/>
</g>
</svg>
